<?xml version="1.0" encoding="UTF-8"?>
<svg xmlns="http://www.w3.org/2000/svg" viewBox="0 0 513.08 571.4">
  <defs>
    <style>
      .cls-1 {
        fill: #cdcace;
      }

      .cls-2 {
        fill: #2b2b2b;
      }

      .cls-3 {
        fill: #ecbd20;
      }

      .cls-4 {
        fill: #43474d;
      }

      .cls-5 {
        fill: #1e1e1e;
      }

      .cls-6 {
        fill: #646e78;
      }

      .cls-7 {
        fill: #d8d8d8;
      }

      .cls-8 {
        fill: #3a3a3a;
      }

      .cls-9 {
        fill: #434b5a;
      }

      .cls-10 {
        fill: #f7f8fc;
      }

      .cls-11 {
        fill: #d7d2d8;
      }

      .cls-12 {
        fill: #dabf9c;
      }

      .cls-13 {
        fill: #f1edf1;
      }

      .cls-14 {
        fill: #ceb64e;
      }

      .cls-15 {
        fill: #edebec;
      }

      .cls-16 {
        fill: #f1adcd;
      }

      .cls-17 {
        fill: #2b3a41;
      }

      .cls-18 {
        fill: #eed674;
      }

      .cls-19 {
        fill: #e01f26;
      }

      .cls-20 {
        fill: #49525e;
      }

      .cls-21 {
        fill: none;
        stroke: #43474d;
        stroke-miterlimit: 10;
      }

      .cls-22 {
        fill: #dc8ebd;
      }

      .cls-23 {
        fill: #f5cc23;
      }

      .cls-24 {
        fill: #1b242d;
      }
    </style>
  </defs>
  <g id="Layer_6">
    <g>
      <path class="cls-8" d="M253.45,488.12c-45.86-26.82-91.72-53.64-137.57-80.47-3.56-2.08-3.56-7.28.01-9.44,30.08-18.21,60.16-36.42,90.25-54.63,1.7-1.03,3.82-1.06,5.52-.07,46.22,26.83,92.45,53.66,138.67,80.49,3.59,2.08,3.57,7.31-.02,9.46l-91.35,54.61c-1.71,1.02-3.82,1.04-5.51.04Z"/>
      <g>
        <path class="cls-20" d="M234.83,334.71c-3.33.77-6.17.84-9.98.76-.53-.01-6.01-.15-9.96-1.4-.56-.18-1.94-.65-3.1-1.96-.86-.97-1.2-1.95-1.27-2.17-.17-.5-.28-1.03-.32-1.59l-1.69-22.33c-.26-3.41,2.05-6.33,4.97-6.3l24.07.26c2.86.03,5.1,2.88,4.89,6.22-.47,7.36-.94,14.71-1.41,22.07-.07,1.02-.68,2.77-2.01,4.23-1.29,1.43-2.8,1.87-4.2,2.2Z"/>
        <path class="cls-8" d="M241.45,321.98c-4.14.96-9.55,1.83-15.9,1.83-6.31,0-11.69-.84-15.82-1.79-.14-1.77-.27-3.53-.41-5.3,4,1.08,9.49,2.13,16.06,2.14,6.73.01,12.34-1.07,16.39-2.18-.11,1.76-.22,3.53-.33,5.29Z"/>
      </g>
      <path class="cls-20" d="M253.51,484.22c-45.2-26.43-90.39-52.86-135.59-79.29-3.51-2.05-3.53-7.12-.04-9.21,29.44-17.58,58.87-35.16,88.31-52.75,1.67-1,3.75-1.01,5.43-.03,45.56,26.44,91.12,52.88,136.67,79.32,3.54,2.05,3.55,7.15.03,9.23l-89.39,52.72c-1.67.98-3.74.99-5.42,0Z"/>
      <g>
        <ellipse class="cls-4" cx="225.52" cy="303.02" rx="16.98" ry="9.89"/>
        <ellipse class="cls-8" cx="225.48" cy="303.02" rx="9.26" ry="5.39"/>
      </g>
      <rect class="cls-8" x="220.94" y="226.41" width="8.94" height="76.61" rx="2.63" ry="2.63"/>
      <path class="cls-8" d="M255.81,477.99c-36.67-21.46-73.34-42.93-110.01-64.39-2.85-1.67-2.75-5.99.19-7.85,24.72-15.71,49.44-31.42,74.17-47.13,1.4-.89,3.12-.95,4.48-.16,36.97,21.46,73.94,42.92,110.9,64.39,2.87,1.67,2.76,6.02-.2,7.87l-75.06,47.14c-1.4.88-3.11.93-4.47.14Z"/>
      <path class="cls-8" d="M162.41,389.82l-21.07,13.52c-.87.56-1.91.67-2.7.3-3.18-1.5-6.36-3-9.54-4.49-1.55-.73-1.38-2.88.32-3.98,7.05-4.56,14.11-9.12,21.16-13.68.88-.57,1.95-.68,2.74-.29,3.15,1.55,6.3,3.1,9.45,4.66,1.52.75,1.33,2.89-.37,3.97Z"/>
      <path class="cls-8" d="M215.29,357.47l-21.07,13.52c-.87.56-1.91.67-2.7.3-3.18-1.5-6.36-3-9.54-4.49-1.55-.73-1.38-2.88.32-3.98,7.05-4.56,14.11-9.12,21.16-13.68.88-.57,1.95-.68,2.74-.29,3.15,1.55,6.3,3.1,9.45,4.66,1.52.75,1.33,2.89-.37,3.97Z"/>
      <circle class="cls-8" cx="172.37" cy="375.99" r="7.4"/>
      <g>
        <path class="cls-20" d="M225.48,308.42c-.45,0-1.36-.02-2.53-.19-1.2-.17-1.91-.4-2.49-.65-.58-.26-.94-.5-1.17-.9-.19-.34-.23-.67-.24-.88v-67.11c0-1.45,1.18-2.63,2.63-2.63h7.46c1.45,0,2.63,1.18,2.63,2.63v67.11c.03.24.03.61-.16.97-.16.29-.44.56-1.55.95-1.04.36-1.88.5-2.22.55-.21.03-1.12.16-2.36.16Z"/>
        <path class="cls-8" d="M231.77,246.76c-1.1.56-3.35,1.54-6.35,1.54-3.01,0-5.26-.96-6.36-1.52v-4.09c1.57.85,3.72,1.69,6.3,1.69,2.64,0,4.84-.85,6.43-1.72,0,1.37,0,2.73-.01,4.1Z"/>
      </g>
    </g>
  </g>
  <g id="Layer_15">
    <g>
      <path class="cls-11" d="M497.08,476.95c-43.31,26.86-86.61,53.72-129.92,80.58-29.36-17.1-58.73-34.19-88.09-51.29-.63-2.43-1.02-4.91-.1-5.44.51-.29,1.23.11,1.4.2,3,1.55,18.69,2.11,25.15,2.34,10.04.36,53.19-28.43,103.34-77.55,13.81,6.78,28.09,14.86,43.16,23.46,11.14,6.37,18.93,11.24,23,14.52,0,0,13.4,10.77,19.69,7.78.39-.18,1.75-.92,2.54-.37,1.11.77.47,3.61-.18,5.77Z"/>
      <path class="cls-10" d="M497.28,471.2c-43.25,26.93-86.5,53.86-129.75,80.79-29.52-17.06-59.04-34.12-88.56-51.19,43.06-25.03,86.11-50.05,129.17-75.08,29.71,15.16,59.42,30.32,89.14,45.48Z"/>
    </g>
  </g>
  <g id="Layer_2">
    <g>
      <g>
        <path class="cls-22" d="M155.15,321.05c-13.02,11.27-26.05,22.54-39.07,33.81-14.6-6.02-29.2-12.04-43.81-18.06-.65-.93-1.21-1.88-.93-2.1.16-.12.51.02.6.05,1.46.54,7.86.44,10.49.39,4.09-.06,16.74-12.08,28.88-32.1,6.66,2.34,13.72,5.18,21.19,8.2,5.52,2.24,9.45,3.96,11.62,5.15,0,0,7.15,3.9,9.19,2.61.13-.08.55-.39.96-.19.57.28.78,1.39.87,2.23Z"/>
        <path class="cls-16" d="M154.29,318.82c-12.99,11.29-25.98,22.59-38.97,33.88-14.66-6-29.32-12.01-43.97-18.01,13.22-10.55,26.45-21.11,39.67-31.66,14.42,5.26,28.85,10.53,43.27,15.79Z"/>
      </g>
      <g>
        <path class="cls-14" d="M100.74,323.18c-14.11,9.87-28.23,19.74-42.34,29.6-13.9-7.49-27.81-14.98-41.71-22.47-.55-.99-1.01-1.99-.71-2.19.17-.11.51.07.59.11,1.39.69,7.77,1.24,10.4,1.47,4.08.36,17.89-10.29,32.03-28.95,6.38,3.02,13.12,6.56,20.23,10.34,5.26,2.79,8.99,4.92,11.03,6.32,0,0,6.71,4.61,8.87,3.54.13-.07.59-.33.98-.09.54.33.63,1.46.63,2.31Z"/>
        <path class="cls-18" d="M100.11,320.88c-14.08,9.9-28.17,19.79-42.25,29.69-13.96-7.48-27.92-14.96-41.89-22.44,14.24-9.14,28.48-18.27,42.72-27.41,13.81,6.72,27.61,13.44,41.42,20.16Z"/>
      </g>
      <path class="cls-21" d="M54.56,309.64c1.66-.96,3.55-1.53,5.46-1.66.33-.02.73.02.86.32-.96.84-1.92,1.69-2.88,2.53-.22.2-.47.48-.36.75.12.3.53.3.84.25,1.3-.21,2.57-.6,3.77-1.14.15-.07.37-.12.44.03.03.06.02.14,0,.21-.1.43-.33.81-.47,1.23s-.16.91.1,1.26c.34.45,1,.46,1.57.44.63-.03,1.26-.05,1.89-.08.2,0,.46.02.5.22.02.1-.03.21-.08.3-.23.41-.47.83-.7,1.24-.11.19-.22.42-.12.62.09.19.32.25.53.28,1.29.22,2.6.18,3.9.34s2.62.55,3.56,1.46"/>
      <path class="cls-21" d="M73.44,322.36c1.32-1.23,2.65-2.47,4.15-3.49.23-.16.54-.31.76-.14.32.23.04.73-.23,1-1.15,1.15-2.31,2.3-3.46,3.45.09.25.46.24.72.16,1.37-.41,2.59-1.2,3.79-1.99-.17.54-.34,1.08-.51,1.62-.07.22-.14.46-.06.68.18.48.84.45,1.35.49.69.05,1.35.41,1.78.95"/>
      <path class="cls-21" d="M49.52,313.61c.86-.78,1.82-1.43,2.86-1.95.32,1.64-.96,3.32-.52,4.94.99-.42,1.98-.84,2.98-1.25.16-.07.35-.14.51-.06.16.08.22.28.24.46.07.79-.38,1.55-.4,2.35,0,.18.03.39.18.49.11.07.25.07.38.05.48-.05.96-.15,1.43-.29.17-.05.36-.12.53-.07.37.1.45.6.38.98s-.21.79-.02,1.13c.5.88,2.29-.11,2.72.81.07.15.08.34.17.48.23.36.76.27,1.18.2,1.1-.19,2.5.26,2.7,1.36.09.49.03,1.16.5,1.29.15.04.3,0,.45-.04,1.09-.31,2.33-.82,3.28-.19.82.54.97,1.65,1.49,2.48.17.27.38.51.48.81.25.69-.04,1.63.56,2.06.63.45,1.46-.22,2.23-.22.63,0,1.21.53,1.27,1.15"/>
    </g>
  </g>
  <g id="Layer_3">
    <g>
      <path class="cls-1" d="M420.53,356.19c-13.22,10.21-26.44,20.41-39.66,30.62-2.02,1.77-7.63,6.22-16.15,7.01-5.75.54-10.38-.82-12.9-1.78l-41.4-23.9c-.71-.36-6.68-3.49-7.99-10.28-1.06-5.48,1.35-11.16,6.13-14.49,15.97-9.25,31.93-18.5,47.9-27.75,21.35,13.52,42.71,27.05,64.06,40.57Z"/>
      <path class="cls-15" d="M420.53,351.24c-13.13,10.26-26.25,20.52-39.38,30.78-2,1.78-7.58,6.25-16,7.1-5.69.58-10.24-.74-12.72-1.67l-40.7-23.5c-.7-.35-6.57-3.43-7.81-10.18-1-5.45,1.41-11.13,6.16-14.48,15.83-9.33,31.66-18.65,47.5-27.98,20.98,13.31,41.96,26.62,62.95,39.93Z"/>
      <path class="cls-10" d="M478.75,389.69c-78.23-44.99-156.46-89.98-234.69-134.97.27-5.33.53-10.65.8-15.98,77.87,44.95,155.74,89.9,233.61,134.85.09,5.37.18,10.73.27,16.1Z"/>
      <path class="cls-11" d="M478.75,389.69c3.67-1.91,7.33-3.82,11-5.72v-14.87h-11v20.59Z"/>
      <path class="cls-17" d="M490.88,178.57c-4.17,2.53-8.33,5.05-12.5,7.58v188.02c3.79-1.69,7.58-3.37,11.37-5.06.38-63.51.75-127.02,1.13-190.54Z"/>
      <path class="cls-9" d="M479.31,186.15c-78.58-45.39-157.16-90.78-235.74-136.17,4.53-1.74,9.07-3.48,13.6-5.22,77.9,44.6,155.81,89.21,233.71,133.81-3.86,2.53-7.72,5.05-11.57,7.58Z"/>
      <path class="cls-6" d="M478.39,374.16c-77.86-45.08-155.73-90.17-233.59-135.25-.29-63.08-.57-126.16-.86-189.24,78.57,45.42,157.14,90.85,235.7,136.27-.42,62.74-.84,125.48-1.26,188.22Z"/>
      <path class="cls-24" d="M470.47,360.05c-72.7-42.27-145.39-84.54-218.09-126.81.13-57.36.25-114.71.38-172.07,72.76,42.4,145.52,84.79,218.28,127.19-.19,57.23-.38,114.46-.57,171.68Z"/>
    </g>
  </g>
  <g id="Layer_16">
    <g>
      <path class="cls-12" d="M29.43,362.57c-2.71-1.87-5.42-3.74-8.13-5.61,3.35-.6,6.69-1.19,10.04-1.79,1.28,1.5,2.56,3,3.84,4.5-1.91.97-3.83,1.93-5.74,2.9Z"/>
      <path class="cls-4" d="M23.65,358.59l-2.36-1.63c.95-.17,1.89-.34,2.84-.51-.16.71-.32,1.42-.48,2.13Z"/>
      <rect class="cls-23" x="71.27" y="323.38" width="7.64" height="94.02" rx=".75" ry=".75" transform="translate(452.5 390.07) rotate(104.45)"/>
      <rect class="cls-3" x="74.89" y="320.56" width="1.86" height="94.02" rx=".75" ry=".75" transform="translate(450.68 385.85) rotate(104.45)"/>
      <rect class="cls-3" x="73.92" y="324.31" width="1.86" height="94.02" rx=".75" ry=".75" transform="translate(453.1 391.47) rotate(104.45)"/>
      <rect class="cls-19" x="118.32" y="379.76" width="7.64" height="5.51" rx=".75" ry=".75" transform="translate(523.03 359.65) rotate(104.45)"/>
      <rect class="cls-7" x="116.53" y="381.12" width="7.64" height="1.85" rx=".09" ry=".09" transform="translate(520.34 360.81) rotate(104.45)"/>
    </g>
  </g>
  <g id="Layer_17">
    <g>
      <path class="cls-12" d="M356.41,522.47c-3.29-.02-6.59-.03-9.88-.05,2.43-2.38,4.85-4.76,7.28-7.14,1.9.52,3.81,1.04,5.71,1.56-1.04,1.88-2.07,3.75-3.11,5.63Z"/>
      <path class="cls-4" d="M349.4,522.43h-2.86c.69-.69,1.37-1.36,2.06-2.03.27.68.54,1.35.81,2.03Z"/>
      <rect class="cls-23" x="394.7" y="456.16" width="7.64" height="94.02" rx=".75" ry=".75" transform="translate(736.12 -42.75) rotate(70.11)"/>
      <rect class="cls-3" x="396.61" y="453.42" width="1.86" height="94.02" rx=".75" ry=".75" transform="translate(732.9 -43.63) rotate(70.11)"/>
      <rect class="cls-3" x="397.93" y="457.07" width="1.86" height="94.02" rx=".75" ry=".75" transform="translate(737.19 -42.46) rotate(70.11)"/>
      <rect class="cls-19" x="440.39" y="483.89" width="7.64" height="5.51" rx=".75" ry=".75" transform="translate(750.73 -96.62) rotate(70.11)"/>
      <rect class="cls-7" x="438.65" y="486.35" width="7.64" height="1.85" rx=".09" ry=".09" transform="translate(750.17 -94.57) rotate(70.11)"/>
    </g>
  </g>
  <g id="Layer_11">
    <g>
      <path class="cls-5" d="M115.61,271.7s-19.19-.07-29.27-5.15c-1.72-.87-2.15-2.16-2.15-2.16-.13-.38-.15-.73-.15-.98v-18c0-1.82,1.48-3.3,3.3-3.3h66.27c1.82,0,3.3,1.48,3.3,3.3v18c-.09.59-.31,1.5-.97,2.33,0,0-.44.56-1.08.98-7.7,5.08-39.26,4.98-39.26,4.98Z"/>
      <ellipse class="cls-13" cx="182.97" cy="78.45" rx="49.85" ry="13.89" transform="translate(-16.09 75.61) rotate(-22.39)"/>
      <ellipse class="cls-2" cx="120.47" cy="244.09" rx="36.44" ry="10.8"/>
      <circle class="cls-18" cx="183.55" cy="79.85" r="20.8"/>
      <path class="cls-2" d="M176.97,39.36l-15.62,6.53c-2.05.86-4.27.77-6.2-.06-1.82-.79-2.92-2.09-3.2-2.43-.64-.79-1.03-1.56-1.26-2.11-1.55-3.71-3.1-7.42-4.66-11.13-.89-2.13-.86-4.4-.1-6.36.25-.63.85-1.95,3.07-3.8,1.84-1.54,3.27-2.17,8.65-4.42,4.7-1.96,6.46-2.67,9.17-3.09,2.02-.32,3.61-.33,5.25.38,1.81.78,2.93,2.11,3.17,2.39.52.63.96,1.35,1.29,2.15l4.66,11.13c1.78,4.26-.1,9.1-4.21,10.82Z"/>
      <path class="cls-2" d="M136.11,94.54c31.24-11.95,62.48-23.91,93.72-35.86-16.29-9.76-32.59-19.52-48.88-29.28-9.5,3.34-18.99,6.68-28.49,10.02-5.45,18.37-10.9,36.75-16.35,55.12Z"/>
      <ellipse class="cls-2" cx="99.63" cy="63.95" rx="4.93" ry="5.96" transform="translate(14.19 145.91) rotate(-76.5)"/>
      <rect class="cls-8" x="97.34" y="79.85" width="5.03" height="144.17"/>
      <rect class="cls-8" x="125.48" y="27.19" width="5.03" height="40.65" transform="translate(116.96 -88.57) rotate(65)"/>
      <rect class="cls-2" x="95.54" y="66.19" width="8.64" height="14.67" rx="2.1" ry="2.1"/>
      <rect class="cls-2" x="101.32" y="50.72" width="8.64" height="14.67" rx="2.1" ry="2.1" transform="translate(103.09 -62.45) rotate(60)"/>
      <rect class="cls-2" x="95.54" y="222.98" width="8.64" height="14.67" rx="2.1" ry="2.1"/>
      <polyline class="cls-2" points="143.89 37.18 146.9 31.74 152.05 41.42 146.41 41.54 143.89 37.18"/>
    </g>
  </g>
</svg>